<svg id="Слой_1" data-name="Слой 1" xmlns="http://www.w3.org/2000/svg" xmlns:xlink="http://www.w3.org/1999/xlink" viewBox="0 0 75.94 48.77">
  <defs>
    <style>
      .cls-1 {
        mask: url(#mask);
      }

      .cls-2, .cls-4 {
        fill: #ac9680;
      }

      .cls-3 {
        fill: none;
        stroke-width: 3px;
      }

      .cls-3, .cls-4 {
        stroke: #ac9680;
      }

      .cls-4 {
        stroke-width: 2px;
      }
    </style>
    <mask id="mask" x="-879.5" y="-9.5" width="955.44" height="58.27" maskUnits="userSpaceOnUse"/>
  </defs>
  <title>Group_44_Copy111</title>
  <g class="cls-1">
    <g id="Group-7-Copy">
      <g id="Group-6">
        <path id="Fill-25" class="cls-2" d="M944.18,21.88a1.21,1.21,0,0,1-.44.28,1.39,1.39,0,0,1-1,0,1.32,1.32,0,0,1-.45-0.3A1.27,1.27,0,0,1,942,21.4a1.36,1.36,0,0,1-.1-0.5,1.39,1.39,0,0,1,.09-0.5,1.25,1.25,0,0,1,.29-0.44,1.33,1.33,0,0,1,.45-0.3,1.34,1.34,0,0,1,1,0,1.27,1.27,0,0,1,.44.29,1.33,1.33,0,0,1,.3.45,1.41,1.41,0,0,1,.1.51,1.38,1.38,0,0,1-.09.51,1.28,1.28,0,0,1-.3.45" transform="translate(-879.5 -9.64)"/>
        <path id="Fill-26" class="cls-2" d="M950,22.16a0.6,0.6,0,0,1-.53-0.65c0.32-3.21-2.4-6.11-6-6.47a0.6,0.6,0,0,1,.12-1.18c4.3,0.42,7.49,3.91,7.11,7.77a0.59,0.59,0,0,1-.65.53" transform="translate(-879.5 -9.64)"/>
        <path id="Fill-27" class="cls-2" d="M952.67,21.66c0.46-4.7-3.5-9-8.82-9.48A0.6,0.6,0,1,1,944,11c6,0.59,10.42,5.42,9.89,10.78A0.6,0.6,0,1,1,952.67,21.66Z" transform="translate(-879.5 -9.64)"/>
        <path id="Fill-28" class="cls-2" d="M947.06,21.9a0.6,0.6,0,0,1-.53-0.65,3.51,3.51,0,0,0-3.38-3.59,0.6,0.6,0,1,1,.12-1.18,4.7,4.7,0,0,1,4.45,4.89,0.59,0.59,0,0,1-.65.53" transform="translate(-879.5 -9.64)"/>
      </g>
      <path id="Live" class="cls-2" d="M898.54,25h2.77V38.43h8.06v2.4H898.54V25ZM911,25h2.53v2.4H911V25Zm0,4.38h2.53V40.83H911V29.34Zm4.15,0h2.75l2.91,8.82h0l2.8-8.82h2.62l-4.11,11.48h-2.84Zm20.53,4.73a4.09,4.09,0,0,0-.26-1.16,3.08,3.08,0,0,0-.58-1,2.86,2.86,0,0,0-.89-0.67A2.61,2.61,0,0,0,932.8,31a3,3,0,0,0-1.21.23,2.77,2.77,0,0,0-.93.64,3.19,3.19,0,0,0-.62,1,3.37,3.37,0,0,0-.26,1.2h5.9Zm-5.9,1.67A4.41,4.41,0,0,0,930,37a3.18,3.18,0,0,0,.57,1.09,2.73,2.73,0,0,0,1,.74,3.15,3.15,0,0,0,1.38.28,3,3,0,0,0,1.79-.48,2.82,2.82,0,0,0,1-1.43h2.4a4.76,4.76,0,0,1-1.86,2.9,5.08,5.08,0,0,1-1.54.76,6.21,6.21,0,0,1-1.79.26,6.07,6.07,0,0,1-2.4-.44,5,5,0,0,1-1.76-1.24,5.28,5.28,0,0,1-1.09-1.91,7.76,7.76,0,0,1-.37-2.44,6.92,6.92,0,0,1,.39-2.32,5.94,5.94,0,0,1,1.11-1.93A5.21,5.21,0,0,1,932.8,29a5.14,5.14,0,0,1,2.43.57A5.33,5.33,0,0,1,937,31.1a6.07,6.07,0,0,1,1,2.14,6.57,6.57,0,0,1,.17,2.5h-8.44Z" transform="translate(-879.5 -9.64)"/>
      <g id="Rectangle">
        <path id="path-1" class="cls-3" d="M953.94,25.25V51.11A5.87,5.87,0,0,1,948,56.9H886.93a5.86,5.86,0,0,1-5.93-5.8V16.93a5.87,5.87,0,0,1,5.93-5.8h53.41" transform="translate(-879.5 -9.64)"/>
      </g>
      <g id="Rectangle-Copy">
        <rect id="path-3" class="cls-4" x="1.5" y="41.98" width="72.94" height="5.29"/>
      </g>
    </g>
  </g>
</svg>
