<svg xmlns="http://www.w3.org/2000/svg" xmlns:xlink="http://www.w3.org/1999/xlink" viewBox="0 0 310.84 231.62"><defs><style>.cls-1{isolation:isolate;}.cls-10,.cls-11,.cls-12,.cls-13,.cls-14,.cls-15,.cls-16,.cls-17,.cls-18,.cls-19,.cls-2,.cls-20,.cls-21,.cls-4,.cls-5,.cls-6,.cls-7,.cls-8,.cls-9{fill-rule:evenodd;}.cls-2{fill:url(#Gold);}.cls-3,.cls-6{fill:#e6e6e6;mix-blend-mode:multiply;}.cls-4{fill:#770e12;}.cls-5{fill:url(#Gold-2);}.cls-7{fill:url(#linear-gradient);}.cls-8{fill:url(#Red_Orange);}.cls-9{fill:url(#Gold-3);}.cls-10{fill:#39929b;}.cls-11{fill:#58a5a9;}.cls-12{fill:#3d5b47;}.cls-13{fill:#3ea0a3;}.cls-14{fill:#387e8a;}.cls-15{fill:#4e6d7d;}.cls-16{fill:#395f9b;}.cls-17{fill:#587ba9;}.cls-18{fill:#3d5b57;}.cls-19{fill:#3e6ca3;}.cls-20{fill:#38548a;}.cls-21{fill:#4e557d;}</style><linearGradient id="Gold" x1="98.63" y1="43.74" x2="310.84" y2="43.74" gradientUnits="userSpaceOnUse"><stop offset="0" stop-color="#ffe7a3"/><stop offset="0.5" stop-color="#ffca05"/><stop offset="1" stop-color="#faac18"/></linearGradient><linearGradient id="Gold-2" x1="47.01" y1="155.24" x2="166.71" y2="155.24" xlink:href="#Gold"/><linearGradient id="linear-gradient" x1="9.46" y1="93.45" x2="310.84" y2="93.45" gradientUnits="userSpaceOnUse"><stop offset="0" stop-color="#fff1b9"/><stop offset="0.5" stop-color="#ffe341"/><stop offset="1" stop-color="#fbcb4f"/></linearGradient><linearGradient id="Red_Orange" x1="1" y1="67.01" x2="109.59" y2="67.01" gradientUnits="userSpaceOnUse"><stop offset="0" stop-color="#f37e5f"/><stop offset="0.5" stop-color="#ec1c24"/><stop offset="1" stop-color="#cf232a"/></linearGradient><linearGradient id="Gold-3" x1="-2.06" y1="21.52" x2="73.16" y2="76.45" xlink:href="#Gold"/></defs><title>319842-P99Y9E-469</title><g class="cls-1"><g id="OBJECTS"><polygon class="cls-2" points="206.43 87.48 310.84 5.64 98.63 0 206.43 87.48"/><path class="cls-3" d="M372,178.43c1.92-1.92,36.37-26.66,36.37-26.66L197.62,146l26.81,21.76,67,26Z" transform="translate(-98.99 -146)"/><polygon class="cls-4" points="109 60.1 109.59 16.27 42.66 57.73 24.3 117.75 84.52 111.43 109 60.1"/><polygon class="cls-5" points="122.33 104.97 47.01 161 166.71 205.5 122.33 104.97"/><polygon class="cls-6" points="97.01 156 150.66 169.1 159.2 188.74 47.01 161 97.01 156"/><polygon class="cls-7" points="310.84 5.64 9.46 31.61 47.01 161 271.75 181.26 310.84 5.64"/><polygon class="cls-3" points="98.75 23.91 112.79 22.7 34.28 117.16 29.72 101.47 98.75 23.91"/><polygon class="cls-8" points="1 23.37 109.59 16.27 24.3 117.75 1 23.37"/><polygon class="cls-9" points="70.21 43.18 47.2 47.24 66.66 0.26 13.86 64.27 36.87 60.21 17.41 107.19 70.21 43.18"/><path class="cls-10" d="M105.13,291.54l-1.77-3.82-0.86-6.26,82.5,0.17-1.31,6.68-2.06,3.15-76.51.08h0Zm54-7.54a1,1,0,1,0,.91,1,0.94,0.94,0,0,0-.91-1h0Zm-30.71-.18a1,1,0,1,0,.91,1A0.94,0.94,0,0,0,128.39,283.82Z" transform="translate(-98.99 -146)"/><polygon class="cls-11" points="4.37 141.72 84.83 142.2 87.86 231.62 0 231.09 4.37 141.72"/><path class="cls-12" d="M130.26,284.78a1.88,1.88,0,1,0-1.9,1.94,1.92,1.92,0,0,0,1.9-1.94h0Zm-1.88-1a1,1,0,1,1-.92.94A0.94,0.94,0,0,1,128.39,283.82Z" transform="translate(-98.99 -146)"/><path class="cls-12" d="M159.1,283a1.95,1.95,0,1,0,1.87,2,1.92,1.92,0,0,0-1.87-2h0Zm0,1a1,1,0,1,1-.92.94A0.94,0.94,0,0,1,159.09,284Z" transform="translate(-98.99 -146)"/><path class="cls-13" d="M168.28,291.47c2.7,16.35.46,34.86-7.45,52.63a98.18,98.18,0,0,1-17,26.17,89.35,89.35,0,0,1-7.18,7.05l50.21,0.3-3-89.42h-0.1l-16.07-.1Q168,289.77,168.28,291.47Z" transform="translate(-98.99 -146)"/><path class="cls-14" d="M167.65,288.1l16.07,0.1,1.29-6.57-19,0Q166.94,284.77,167.65,288.1Z" transform="translate(-98.99 -146)"/><path class="cls-15" d="M127.58,284.94c0-.05-4.19-18.09,0-28.64a14.77,14.77,0,0,1,8.61-8.13,24.64,24.64,0,0,1,10.95-1.55,21.16,21.16,0,0,1,10,3.18,10.49,10.49,0,0,1,4.83,7c1.88,11.28-2.09,28.3-2.1,28.35-0.19.73-1.65,0.4-1.49-.35,0,0,3.91-16.76,2.08-27.75a9,9,0,0,0-4.17-6,19.6,19.6,0,0,0-9.22-2.93,23.11,23.11,0,0,0-10.26,1.45,13.28,13.28,0,0,0-7.75,7.26c-4,10.11.06,27.69,0.07,27.74A0.77,0.77,0,0,1,127.58,284.94Z" transform="translate(-98.99 -146)"/><path class="cls-16" d="M148.82,311.62l-1.36-2.93-0.66-4.8L210.07,304l-1,5.12-1.58,2.41-58.66.06h0Zm41.38-5.78a0.73,0.73,0,1,0,.7.73,0.72,0.72,0,0,0-.7-0.73h0Zm-23.55-.14a0.73,0.73,0,1,0,.7.73A0.72,0.72,0,0,0,166.65,305.7Z" transform="translate(-98.99 -146)"/><polygon class="cls-17" points="48.47 162.69 110.16 163.06 112.49 231.62 45.12 231.22 48.47 162.69"/><path class="cls-18" d="M168.09,306.43a1.45,1.45,0,1,0-1.45,1.48,1.47,1.47,0,0,0,1.45-1.48h0Zm-1.44-.74a0.73,0.73,0,1,1-.71.72A0.72,0.72,0,0,1,166.65,305.7Z" transform="translate(-98.99 -146)"/><path class="cls-18" d="M190.2,305.07a1.49,1.49,0,1,0,1.44,1.5,1.47,1.47,0,0,0-1.44-1.5h0Zm0,0.76a0.73,0.73,0,1,1-.71.72A0.72,0.72,0,0,1,190.2,305.84Z" transform="translate(-98.99 -146)"/><path class="cls-19" d="M197.24,311.57c2.07,12.54.36,26.73-5.71,40.35a75.28,75.28,0,0,1-13,20.07,68.49,68.49,0,0,1-5.51,5.41l38.5,0.23-2.33-68.56h-0.08L196.76,309Q197,310.26,197.24,311.57Z" transform="translate(-98.99 -146)"/><path class="cls-20" d="M196.76,309l12.32,0.07,1-5-14.6,0Q196.22,306.43,196.76,309Z" transform="translate(-98.99 -146)"/><path class="cls-21" d="M166,306.56s-3.21-13.87,0-22a11.33,11.33,0,0,1,6.6-6.23,18.89,18.89,0,0,1,8.39-1.19,16.22,16.22,0,0,1,7.64,2.44,8,8,0,0,1,3.71,5.35c1.44,8.65-1.6,21.7-1.61,21.74-0.14.56-1.27,0.3-1.14-.26,0,0,3-12.85,1.6-21.28a6.9,6.9,0,0,0-3.2-4.57,15,15,0,0,0-7.07-2.25,17.72,17.72,0,0,0-7.87,1.11,10.18,10.18,0,0,0-5.94,5.57c-3.08,7.75,0,21.23.06,21.27A0.59,0.59,0,0,1,166,306.56Z" transform="translate(-98.99 -146)"/></g></g></svg>